solid OpenSCAD_Model
  facet normal 0.951051 0.309035 0
    outer loop
      vertex 15.6504 3.32659 28
      vertex 14.6167 6.50779 0
      vertex 14.6167 6.50779 28
    endloop
  endfacet
  facet normal 0.951051 0.309035 0
    outer loop
      vertex 14.6167 6.50779 0
      vertex 15.6504 3.32659 28
      vertex 15.6504 3.32659 0
    endloop
  endfacet
  facet normal 0.994523 0.104517 0
    outer loop
      vertex 16 0 28
      vertex 15.6504 3.32659 0
      vertex 15.6504 3.32659 28
    endloop
  endfacet
  facet normal 0.994523 0.104517 0
    outer loop
      vertex 15.6504 3.32659 0
      vertex 16 0 28
      vertex 16 0 0
    endloop
  endfacet
  facet normal 0.866032 0.499989 0
    outer loop
      vertex 14.6167 6.50779 28
      vertex 12.9443 9.40456 0
      vertex 12.9443 9.40456 28
    endloop
  endfacet
  facet normal 0.866032 0.499989 0
    outer loop
      vertex 12.9443 9.40456 0
      vertex 14.6167 6.50779 28
      vertex 14.6167 6.50779 0
    endloop
  endfacet
  facet normal -0.406737 0.913545 0
    outer loop
      vertex -4.94427 15.2169 0
      vertex -8 13.8564 28
      vertex -4.94427 15.2169 28
    endloop
  endfacet
  facet normal -0.406737 0.913545 0
    outer loop
      vertex -8 13.8564 28
      vertex -4.94427 15.2169 0
      vertex -8 13.8564 0
    endloop
  endfacet
  facet normal 0.406737 0.913545 -0
    outer loop
      vertex 8 13.8564 0
      vertex 4.94427 15.2169 28
      vertex 8 13.8564 28
    endloop
  endfacet
  facet normal 0.406737 0.913545 0
    outer loop
      vertex 4.94427 15.2169 28
      vertex 8 13.8564 0
      vertex 4.94427 15.2169 0
    endloop
  endfacet
  facet normal 0.994523 -0.104517 0
    outer loop
      vertex 15.6504 -3.32659 28
      vertex 16 0 0
      vertex 16 0 28
    endloop
  endfacet
  facet normal 0.994523 -0.104517 0
    outer loop
      vertex 16 0 0
      vertex 15.6504 -3.32659 28
      vertex 15.6504 -3.32659 0
    endloop
  endfacet
  facet normal -0.74314 0.669136 0
    outer loop
      vertex -12.9443 9.40456 0
      vertex -10.7061 11.8903 28
      vertex -10.7061 11.8903 0
    endloop
  endfacet
  facet normal -0.74314 0.669136 0
    outer loop
      vertex -10.7061 11.8903 28
      vertex -12.9443 9.40456 0
      vertex -12.9443 9.40456 28
    endloop
  endfacet
  facet normal -0.587786 0.809017 0
    outer loop
      vertex -8 13.8564 0
      vertex -10.7061 11.8903 28
      vertex -8 13.8564 28
    endloop
  endfacet
  facet normal -0.587786 0.809017 0
    outer loop
      vertex -10.7061 11.8903 28
      vertex -8 13.8564 0
      vertex -10.7061 11.8903 0
    endloop
  endfacet
  facet normal 0.74314 0.669136 0
    outer loop
      vertex 12.9443 9.40456 28
      vertex 10.7061 11.8903 0
      vertex 10.7061 11.8903 28
    endloop
  endfacet
  facet normal 0.74314 0.669136 0
    outer loop
      vertex 10.7061 11.8903 0
      vertex 12.9443 9.40456 28
      vertex 12.9443 9.40456 0
    endloop
  endfacet
  facet normal 0.951051 -0.309035 0
    outer loop
      vertex 14.6167 -6.50779 28
      vertex 15.6504 -3.32659 0
      vertex 15.6504 -3.32659 28
    endloop
  endfacet
  facet normal 0.951051 -0.309035 0
    outer loop
      vertex 15.6504 -3.32659 0
      vertex 14.6167 -6.50779 28
      vertex 14.6167 -6.50779 0
    endloop
  endfacet
  facet normal -0.406737 -0.913545 0
    outer loop
      vertex -8 -13.8564 0
      vertex -4.94427 -15.2169 28
      vertex -8 -13.8564 28
    endloop
  endfacet
  facet normal -0.406737 -0.913545 -0
    outer loop
      vertex -4.94427 -15.2169 28
      vertex -8 -13.8564 0
      vertex -4.94427 -15.2169 0
    endloop
  endfacet
  facet normal -0.866032 -0.499989 0
    outer loop
      vertex -12.9443 -9.40456 0
      vertex -14.6167 -6.50779 28
      vertex -14.6167 -6.50779 0
    endloop
  endfacet
  facet normal -0.866032 -0.499989 0
    outer loop
      vertex -14.6167 -6.50779 28
      vertex -12.9443 -9.40456 0
      vertex -12.9443 -9.40456 28
    endloop
  endfacet
  facet normal -0.951051 0.309035 0
    outer loop
      vertex -15.6504 3.32659 0
      vertex -14.6167 6.50779 28
      vertex -14.6167 6.50779 0
    endloop
  endfacet
  facet normal -0.951051 0.309035 0
    outer loop
      vertex -14.6167 6.50779 28
      vertex -15.6504 3.32659 0
      vertex -15.6504 3.32659 28
    endloop
  endfacet
  facet normal -0.207898 -0.97815 0
    outer loop
      vertex -4.94427 -15.2169 0
      vertex -1.67245 -15.9123 28
      vertex -4.94427 -15.2169 28
    endloop
  endfacet
  facet normal -0.207898 -0.97815 -0
    outer loop
      vertex -1.67245 -15.9123 28
      vertex -4.94427 -15.2169 0
      vertex -1.67245 -15.9123 0
    endloop
  endfacet
  facet normal -0.951051 -0.309035 0
    outer loop
      vertex -14.6167 -6.50779 0
      vertex -15.6504 -3.32659 28
      vertex -15.6504 -3.32659 0
    endloop
  endfacet
  facet normal -0.951051 -0.309035 0
    outer loop
      vertex -15.6504 -3.32659 28
      vertex -14.6167 -6.50779 0
      vertex -14.6167 -6.50779 28
    endloop
  endfacet
  facet normal -0.994523 0.104517 0
    outer loop
      vertex -16 0 0
      vertex -15.6504 3.32659 28
      vertex -15.6504 3.32659 0
    endloop
  endfacet
  facet normal -0.994523 0.104517 0
    outer loop
      vertex -15.6504 3.32659 28
      vertex -16 0 0
      vertex -16 0 28
    endloop
  endfacet
  facet normal 0 1 -0
    outer loop
      vertex 1.67245 15.9123 0
      vertex -1.67245 15.9123 28
      vertex 1.67245 15.9123 28
    endloop
  endfacet
  facet normal 0 1 0
    outer loop
      vertex -1.67245 15.9123 28
      vertex 1.67245 15.9123 0
      vertex -1.67245 15.9123 0
    endloop
  endfacet
  facet normal 0.74314 -0.669136 0
    outer loop
      vertex 10.7061 -11.8903 28
      vertex 12.9443 -9.40456 0
      vertex 12.9443 -9.40456 28
    endloop
  endfacet
  facet normal 0.74314 -0.669136 0
    outer loop
      vertex 12.9443 -9.40456 0
      vertex 10.7061 -11.8903 28
      vertex 10.7061 -11.8903 0
    endloop
  endfacet
  facet normal 0.207898 -0.97815 0
    outer loop
      vertex 1.67245 -15.9123 0
      vertex 4.94427 -15.2169 28
      vertex 1.67245 -15.9123 28
    endloop
  endfacet
  facet normal 0.207898 -0.97815 0
    outer loop
      vertex 4.94427 -15.2169 28
      vertex 1.67245 -15.9123 0
      vertex 4.94427 -15.2169 0
    endloop
  endfacet
  facet normal 0.866032 -0.499989 0
    outer loop
      vertex 12.9443 -9.40456 28
      vertex 14.6167 -6.50779 0
      vertex 14.6167 -6.50779 28
    endloop
  endfacet
  facet normal 0.866032 -0.499989 0
    outer loop
      vertex 14.6167 -6.50779 0
      vertex 12.9443 -9.40456 28
      vertex 12.9443 -9.40456 0
    endloop
  endfacet
  facet normal 0.207898 0.97815 -0
    outer loop
      vertex 4.94427 15.2169 0
      vertex 1.67245 15.9123 28
      vertex 4.94427 15.2169 28
    endloop
  endfacet
  facet normal 0.207898 0.97815 0
    outer loop
      vertex 1.67245 15.9123 28
      vertex 4.94427 15.2169 0
      vertex 1.67245 15.9123 0
    endloop
  endfacet
  facet normal 0.587786 -0.809017 0
    outer loop
      vertex 8 -13.8564 0
      vertex 10.7061 -11.8903 28
      vertex 8 -13.8564 28
    endloop
  endfacet
  facet normal 0.587786 -0.809017 0
    outer loop
      vertex 10.7061 -11.8903 28
      vertex 8 -13.8564 0
      vertex 10.7061 -11.8903 0
    endloop
  endfacet
  facet normal 0.587786 0.809017 -0
    outer loop
      vertex 10.7061 11.8903 0
      vertex 8 13.8564 28
      vertex 10.7061 11.8903 28
    endloop
  endfacet
  facet normal 0.587786 0.809017 0
    outer loop
      vertex 8 13.8564 28
      vertex 10.7061 11.8903 0
      vertex 8 13.8564 0
    endloop
  endfacet
  facet normal -0.207898 0.97815 0
    outer loop
      vertex -1.67245 15.9123 0
      vertex -4.94427 15.2169 28
      vertex -1.67245 15.9123 28
    endloop
  endfacet
  facet normal -0.207898 0.97815 0
    outer loop
      vertex -4.94427 15.2169 28
      vertex -1.67245 15.9123 0
      vertex -4.94427 15.2169 0
    endloop
  endfacet
  facet normal 0 -1 0
    outer loop
      vertex -1.67245 -15.9123 0
      vertex 1.67245 -15.9123 28
      vertex -1.67245 -15.9123 28
    endloop
  endfacet
  facet normal 0 -1 -0
    outer loop
      vertex 1.67245 -15.9123 28
      vertex -1.67245 -15.9123 0
      vertex 1.67245 -15.9123 0
    endloop
  endfacet
  facet normal -0.994523 -0.104517 0
    outer loop
      vertex -15.6504 -3.32659 0
      vertex -16 0 28
      vertex -16 0 0
    endloop
  endfacet
  facet normal -0.994523 -0.104517 0
    outer loop
      vertex -16 0 28
      vertex -15.6504 -3.32659 0
      vertex -15.6504 -3.32659 28
    endloop
  endfacet
  facet normal 0 0 -1
    outer loop
      vertex 12.24 0 0
      vertex 16 0 0
      vertex 15.6504 -3.32659 0
    endloop
  endfacet
  facet normal 0 0 -1
    outer loop
      vertex 11.9725 -2.54484 0
      vertex 15.6504 -3.32659 0
      vertex 14.6167 -6.50779 0
    endloop
  endfacet
  facet normal 0 0 -1
    outer loop
      vertex 16 0 0
      vertex 12.24 0 0
      vertex 15.6504 3.32659 0
    endloop
  endfacet
  facet normal 0 0 -1
    outer loop
      vertex 11.1818 -4.97846 0
      vertex 14.6167 -6.50779 0
      vertex 12.9443 -9.40456 0
    endloop
  endfacet
  facet normal 0 0 -1
    outer loop
      vertex 11.9725 2.54484 0
      vertex 15.6504 3.32659 0
      vertex 12.24 0 0
    endloop
  endfacet
  facet normal -0 0 -1
    outer loop
      vertex 15.6504 3.32659 0
      vertex 11.9725 2.54484 0
      vertex 14.6167 6.50779 0
    endloop
  endfacet
  facet normal 0 0 -1
    outer loop
      vertex 15.6504 -3.32659 0
      vertex 11.9725 -2.54484 0
      vertex 12.24 0 0
    endloop
  endfacet
  facet normal 0 0 -1
    outer loop
      vertex 14.6167 -6.50779 0
      vertex 11.1818 -4.97846 0
      vertex 11.9725 -2.54484 0
    endloop
  endfacet
  facet normal 0 0 -1
    outer loop
      vertex 9.90237 -7.19449 0
      vertex 12.9443 -9.40456 0
      vertex 10.7061 -11.8903 0
    endloop
  endfacet
  facet normal 0 0 -1
    outer loop
      vertex 12.9443 -9.40456 0
      vertex 9.90237 -7.19449 0
      vertex 11.1818 -4.97846 0
    endloop
  endfacet
  facet normal 0 0 -1
    outer loop
      vertex 10.7061 -11.8903 0
      vertex 8.19016 -9.09609 0
      vertex 9.90237 -7.19449 0
    endloop
  endfacet
  facet normal 0 0 -1
    outer loop
      vertex 8 -13.8564 0
      vertex 8.19016 -9.09609 0
      vertex 10.7061 -11.8903 0
    endloop
  endfacet
  facet normal 0 0 -1
    outer loop
      vertex 8 -13.8564 0
      vertex 6.12 -10.6002 0
      vertex 8.19016 -9.09609 0
    endloop
  endfacet
  facet normal 0 0 -1
    outer loop
      vertex 4.94427 -15.2169 0
      vertex 6.12 -10.6002 0
      vertex 8 -13.8564 0
    endloop
  endfacet
  facet normal 0 0 -1
    outer loop
      vertex 4.94427 -15.2169 0
      vertex 3.78237 -11.6409 0
      vertex 6.12 -10.6002 0
    endloop
  endfacet
  facet normal 0 0 -1
    outer loop
      vertex 1.67245 -15.9123 0
      vertex 3.78237 -11.6409 0
      vertex 4.94427 -15.2169 0
    endloop
  endfacet
  facet normal 0 0 -1
    outer loop
      vertex 1.67245 -15.9123 0
      vertex 1.27943 -12.1729 0
      vertex 3.78237 -11.6409 0
    endloop
  endfacet
  facet normal 0 0 -1
    outer loop
      vertex 1.67245 -15.9123 0
      vertex -1.27943 -12.1729 0
      vertex 1.27943 -12.1729 0
    endloop
  endfacet
  facet normal 0 0 -1
    outer loop
      vertex -1.67245 -15.9123 0
      vertex -1.27943 -12.1729 0
      vertex 1.67245 -15.9123 0
    endloop
  endfacet
  facet normal 0 0 -1
    outer loop
      vertex -1.67245 -15.9123 0
      vertex -3.78237 -11.6409 0
      vertex -1.27943 -12.1729 0
    endloop
  endfacet
  facet normal 0 0 -1
    outer loop
      vertex -4.94427 -15.2169 0
      vertex -3.78237 -11.6409 0
      vertex -1.67245 -15.9123 0
    endloop
  endfacet
  facet normal 0 0 -1
    outer loop
      vertex -4.94427 -15.2169 0
      vertex -6.12 -10.6002 0
      vertex -3.78237 -11.6409 0
    endloop
  endfacet
  facet normal 0 0 -1
    outer loop
      vertex -8 -13.8564 0
      vertex -6.12 -10.6002 0
      vertex -4.94427 -15.2169 0
    endloop
  endfacet
  facet normal 0 0 -1
    outer loop
      vertex -8 -13.8564 0
      vertex -8.19016 -9.09609 0
      vertex -6.12 -10.6002 0
    endloop
  endfacet
  facet normal 0 0 -1
    outer loop
      vertex -10.7061 -11.8903 0
      vertex -8.19016 -9.09609 0
      vertex -8 -13.8564 0
    endloop
  endfacet
  facet normal -0 0 -1
    outer loop
      vertex -8.19016 -9.09609 0
      vertex -10.7061 -11.8903 0
      vertex -9.90237 -7.19449 0
    endloop
  endfacet
  facet normal 0 0 -1
    outer loop
      vertex -12.9443 -9.40456 0
      vertex -9.90237 -7.19449 0
      vertex -10.7061 -11.8903 0
    endloop
  endfacet
  facet normal -0 0 -1
    outer loop
      vertex -9.90237 -7.19449 0
      vertex -12.9443 -9.40456 0
      vertex -11.1818 -4.97846 0
    endloop
  endfacet
  facet normal -0 0 -1
    outer loop
      vertex -11.1818 -4.97846 0
      vertex -14.6167 -6.50779 0
      vertex -11.9725 -2.54484 0
    endloop
  endfacet
  facet normal 0 0 -1
    outer loop
      vertex -14.6167 -6.50779 0
      vertex -11.1818 -4.97846 0
      vertex -12.9443 -9.40456 0
    endloop
  endfacet
  facet normal 0 0 -1
    outer loop
      vertex 11.1818 4.97846 0
      vertex 14.6167 6.50779 0
      vertex 11.9725 2.54484 0
    endloop
  endfacet
  facet normal -0 0 -1
    outer loop
      vertex 14.6167 6.50779 0
      vertex 11.1818 4.97846 0
      vertex 12.9443 9.40456 0
    endloop
  endfacet
  facet normal 0 0 -1
    outer loop
      vertex 9.90237 7.19449 0
      vertex 12.9443 9.40456 0
      vertex 11.1818 4.97846 0
    endloop
  endfacet
  facet normal -0 0 -1
    outer loop
      vertex 12.9443 9.40456 0
      vertex 9.90237 7.19449 0
      vertex 10.7061 11.8903 0
    endloop
  endfacet
  facet normal 0 0 -1
    outer loop
      vertex 8.19016 9.09609 0
      vertex 10.7061 11.8903 0
      vertex 9.90237 7.19449 0
    endloop
  endfacet
  facet normal 0 0 -1
    outer loop
      vertex 8.19016 9.09609 0
      vertex 8 13.8564 0
      vertex 10.7061 11.8903 0
    endloop
  endfacet
  facet normal 0 0 -1
    outer loop
      vertex 6.12 10.6002 0
      vertex 8 13.8564 0
      vertex 8.19016 9.09609 0
    endloop
  endfacet
  facet normal 0 0 -1
    outer loop
      vertex 6.12 10.6002 0
      vertex 4.94427 15.2169 0
      vertex 8 13.8564 0
    endloop
  endfacet
  facet normal 0 0 -1
    outer loop
      vertex 3.78237 11.6409 0
      vertex 4.94427 15.2169 0
      vertex 6.12 10.6002 0
    endloop
  endfacet
  facet normal 0 0 -1
    outer loop
      vertex 3.78237 11.6409 0
      vertex 1.67245 15.9123 0
      vertex 4.94427 15.2169 0
    endloop
  endfacet
  facet normal 0 0 -1
    outer loop
      vertex 1.27943 12.1729 0
      vertex 1.67245 15.9123 0
      vertex 3.78237 11.6409 0
    endloop
  endfacet
  facet normal 0 0 -1
    outer loop
      vertex -1.27943 12.1729 0
      vertex 1.67245 15.9123 0
      vertex 1.27943 12.1729 0
    endloop
  endfacet
  facet normal 0 0 -1
    outer loop
      vertex -1.27943 12.1729 0
      vertex -1.67245 15.9123 0
      vertex 1.67245 15.9123 0
    endloop
  endfacet
  facet normal 0 0 -1
    outer loop
      vertex -3.78237 11.6409 0
      vertex -1.67245 15.9123 0
      vertex -1.27943 12.1729 0
    endloop
  endfacet
  facet normal 0 0 -1
    outer loop
      vertex -3.78237 11.6409 0
      vertex -4.94427 15.2169 0
      vertex -1.67245 15.9123 0
    endloop
  endfacet
  facet normal 0 0 -1
    outer loop
      vertex -6.12 10.6002 0
      vertex -4.94427 15.2169 0
      vertex -3.78237 11.6409 0
    endloop
  endfacet
  facet normal 0 0 -1
    outer loop
      vertex -6.12 10.6002 0
      vertex -8 13.8564 0
      vertex -4.94427 15.2169 0
    endloop
  endfacet
  facet normal 0 0 -1
    outer loop
      vertex -8.19016 9.09609 0
      vertex -8 13.8564 0
      vertex -6.12 10.6002 0
    endloop
  endfacet
  facet normal 0 0 -1
    outer loop
      vertex -10.7061 11.8903 0
      vertex -8.19016 9.09609 0
      vertex -9.90237 7.19449 0
    endloop
  endfacet
  facet normal 0 0 -1
    outer loop
      vertex -8.19016 9.09609 0
      vertex -10.7061 11.8903 0
      vertex -8 13.8564 0
    endloop
  endfacet
  facet normal 0 0 -1
    outer loop
      vertex -12.9443 9.40456 0
      vertex -9.90237 7.19449 0
      vertex -11.1818 4.97846 0
    endloop
  endfacet
  facet normal 0 0 -1
    outer loop
      vertex -14.6167 6.50779 0
      vertex -11.1818 4.97846 0
      vertex -11.9725 2.54484 0
    endloop
  endfacet
  facet normal 0 0 -1
    outer loop
      vertex -9.90237 7.19449 0
      vertex -12.9443 9.40456 0
      vertex -10.7061 11.8903 0
    endloop
  endfacet
  facet normal 0 0 -1
    outer loop
      vertex -15.6504 3.32659 0
      vertex -11.9725 2.54484 0
      vertex -12.24 0 0
    endloop
  endfacet
  facet normal 0 0 -1
    outer loop
      vertex -15.6504 -3.32659 0
      vertex -11.9725 -2.54484 0
      vertex -14.6167 -6.50779 0
    endloop
  endfacet
  facet normal -0 0 -1
    outer loop
      vertex -11.9725 -2.54484 0
      vertex -15.6504 -3.32659 0
      vertex -12.24 0 0
    endloop
  endfacet
  facet normal 0 0 -1
    outer loop
      vertex -11.1818 4.97846 0
      vertex -14.6167 6.50779 0
      vertex -12.9443 9.40456 0
    endloop
  endfacet
  facet normal 0 0 -1
    outer loop
      vertex -16 0 0
      vertex -12.24 0 0
      vertex -15.6504 -3.32659 0
    endloop
  endfacet
  facet normal 0 0 -1
    outer loop
      vertex -11.9725 2.54484 0
      vertex -15.6504 3.32659 0
      vertex -14.6167 6.50779 0
    endloop
  endfacet
  facet normal 0 0 -1
    outer loop
      vertex -12.24 0 0
      vertex -16 0 0
      vertex -15.6504 3.32659 0
    endloop
  endfacet
  facet normal 0.406737 -0.913545 0
    outer loop
      vertex 4.94427 -15.2169 0
      vertex 8 -13.8564 28
      vertex 4.94427 -15.2169 28
    endloop
  endfacet
  facet normal 0.406737 -0.913545 0
    outer loop
      vertex 8 -13.8564 28
      vertex 4.94427 -15.2169 0
      vertex 8 -13.8564 0
    endloop
  endfacet
  facet normal -0.74314 -0.669136 0
    outer loop
      vertex -10.7061 -11.8903 0
      vertex -12.9443 -9.40456 28
      vertex -12.9443 -9.40456 0
    endloop
  endfacet
  facet normal -0.74314 -0.669136 0
    outer loop
      vertex -12.9443 -9.40456 28
      vertex -10.7061 -11.8903 0
      vertex -10.7061 -11.8903 28
    endloop
  endfacet
  facet normal -0.587786 -0.809017 0
    outer loop
      vertex -10.7061 -11.8903 0
      vertex -8 -13.8564 28
      vertex -10.7061 -11.8903 28
    endloop
  endfacet
  facet normal -0.587786 -0.809017 -0
    outer loop
      vertex -8 -13.8564 28
      vertex -10.7061 -11.8903 0
      vertex -8 -13.8564 0
    endloop
  endfacet
  facet normal -0.866032 0.499989 0
    outer loop
      vertex -14.6167 6.50779 0
      vertex -12.9443 9.40456 28
      vertex -12.9443 9.40456 0
    endloop
  endfacet
  facet normal -0.866032 0.499989 0
    outer loop
      vertex -12.9443 9.40456 28
      vertex -14.6167 6.50779 0
      vertex -14.6167 6.50779 28
    endloop
  endfacet
  facet normal 0 0 -1
    outer loop
      vertex 14.8678 -3.16026 27
      vertex 14.8678 3.16026 27
      vertex 15.2 0 27
    endloop
  endfacet
  facet normal 0 0 -1
    outer loop
      vertex 13.8859 -6.1824 27
      vertex 14.8678 3.16026 27
      vertex 14.8678 -3.16026 27
    endloop
  endfacet
  facet normal 0 0 -1
    outer loop
      vertex 13.8859 -6.1824 27
      vertex 13.8859 6.1824 27
      vertex 14.8678 3.16026 27
    endloop
  endfacet
  facet normal 0 0 -1
    outer loop
      vertex 12.2971 -8.93434 27
      vertex 13.8859 6.1824 27
      vertex 13.8859 -6.1824 27
    endloop
  endfacet
  facet normal 0 0 -1
    outer loop
      vertex 12.2971 -8.93434 27
      vertex 12.2971 8.93434 27
      vertex 13.8859 6.1824 27
    endloop
  endfacet
  facet normal 0 0 -1
    outer loop
      vertex 10.1708 -11.2958 27
      vertex 12.2971 8.93434 27
      vertex 12.2971 -8.93434 27
    endloop
  endfacet
  facet normal 0 0 -1
    outer loop
      vertex 10.1708 -11.2958 27
      vertex 10.1708 11.2958 27
      vertex 12.2971 8.93434 27
    endloop
  endfacet
  facet normal 0 0 -1
    outer loop
      vertex 7.6 -13.1636 27
      vertex 10.1708 11.2958 27
      vertex 10.1708 -11.2958 27
    endloop
  endfacet
  facet normal 0 0 -1
    outer loop
      vertex 7.6 -13.1636 27
      vertex 7.6 13.1636 27
      vertex 10.1708 11.2958 27
    endloop
  endfacet
  facet normal 0 0 -1
    outer loop
      vertex 4.69706 -14.4561 27
      vertex 7.6 13.1636 27
      vertex 7.6 -13.1636 27
    endloop
  endfacet
  facet normal 0 0 -1
    outer loop
      vertex 4.69706 -14.4561 27
      vertex 4.69706 14.4561 27
      vertex 7.6 13.1636 27
    endloop
  endfacet
  facet normal 0 0 -1
    outer loop
      vertex 1.58883 -15.1167 27
      vertex 4.69706 14.4561 27
      vertex 4.69706 -14.4561 27
    endloop
  endfacet
  facet normal 0 0 -1
    outer loop
      vertex 1.58883 -15.1167 27
      vertex 1.58883 15.1167 27
      vertex 4.69706 14.4561 27
    endloop
  endfacet
  facet normal 0 0 -1
    outer loop
      vertex -1.58883 -15.1167 27
      vertex 1.58883 15.1167 27
      vertex 1.58883 -15.1167 27
    endloop
  endfacet
  facet normal 0 0 -1
    outer loop
      vertex -1.58883 -15.1167 27
      vertex -1.58883 15.1167 27
      vertex 1.58883 15.1167 27
    endloop
  endfacet
  facet normal 0 0 -1
    outer loop
      vertex -4.69706 -14.4561 27
      vertex -1.58883 15.1167 27
      vertex -1.58883 -15.1167 27
    endloop
  endfacet
  facet normal 0 0 -1
    outer loop
      vertex -4.69706 -14.4561 27
      vertex -4.69706 14.4561 27
      vertex -1.58883 15.1167 27
    endloop
  endfacet
  facet normal 0 0 -1
    outer loop
      vertex -7.6 -13.1636 27
      vertex -4.69706 14.4561 27
      vertex -4.69706 -14.4561 27
    endloop
  endfacet
  facet normal 0 0 -1
    outer loop
      vertex -7.6 -13.1636 27
      vertex -7.6 13.1636 27
      vertex -4.69706 14.4561 27
    endloop
  endfacet
  facet normal 0 0 -1
    outer loop
      vertex -10.1708 -11.2958 27
      vertex -7.6 13.1636 27
      vertex -7.6 -13.1636 27
    endloop
  endfacet
  facet normal 0 0 -1
    outer loop
      vertex -10.1708 -11.2958 27
      vertex -10.1708 11.2958 27
      vertex -7.6 13.1636 27
    endloop
  endfacet
  facet normal 0 0 -1
    outer loop
      vertex -12.2971 -8.93434 27
      vertex -10.1708 11.2958 27
      vertex -10.1708 -11.2958 27
    endloop
  endfacet
  facet normal 0 0 -1
    outer loop
      vertex -12.2971 -8.93434 27
      vertex -12.2971 8.93434 27
      vertex -10.1708 11.2958 27
    endloop
  endfacet
  facet normal 0 0 -1
    outer loop
      vertex -13.8859 -6.1824 27
      vertex -12.2971 8.93434 27
      vertex -12.2971 -8.93434 27
    endloop
  endfacet
  facet normal 0 0 -1
    outer loop
      vertex -13.8859 -6.1824 27
      vertex -13.8859 6.1824 27
      vertex -12.2971 8.93434 27
    endloop
  endfacet
  facet normal 0 0 -1
    outer loop
      vertex -14.8678 -3.16026 27
      vertex -13.8859 6.1824 27
      vertex -13.8859 -6.1824 27
    endloop
  endfacet
  facet normal 0 0 -1
    outer loop
      vertex -14.8678 -3.16026 27
      vertex -14.8678 3.16026 27
      vertex -13.8859 6.1824 27
    endloop
  endfacet
  facet normal 0 -0 -1
    outer loop
      vertex -14.8678 3.16026 27
      vertex -14.8678 -3.16026 27
      vertex -15.2 0 27
    endloop
  endfacet
  facet normal -0.95106 -0.309006 0
    outer loop
      vertex 11.9725 2.54484 0
      vertex 11.1818 4.97846 10
      vertex 11.1818 4.97846 0
    endloop
  endfacet
  facet normal -0.95106 -0.309006 0
    outer loop
      vertex 11.1818 4.97846 10
      vertex 11.9725 2.54484 0
      vertex 11.9725 2.54484 10
    endloop
  endfacet
  facet normal -0.994521 -0.104539 0
    outer loop
      vertex 12.24 0 0
      vertex 11.9725 2.54484 10
      vertex 11.9725 2.54484 0
    endloop
  endfacet
  facet normal -0.994521 -0.104539 0
    outer loop
      vertex 11.9725 2.54484 10
      vertex 12.24 0 0
      vertex 12.24 0 10
    endloop
  endfacet
  facet normal -0.866025 -0.500001 0
    outer loop
      vertex 11.1818 4.97846 0
      vertex 9.90237 7.19449 10
      vertex 9.90237 7.19449 0
    endloop
  endfacet
  facet normal -0.866025 -0.500001 0
    outer loop
      vertex 9.90237 7.19449 10
      vertex 11.1818 4.97846 0
      vertex 11.1818 4.97846 10
    endloop
  endfacet
  facet normal -0.587798 0.809008 0
    outer loop
      vertex 8.19016 -9.09609 0
      vertex 6.12 -10.6002 10
      vertex 8.19016 -9.09609 10
    endloop
  endfacet
  facet normal -0.587798 0.809008 0
    outer loop
      vertex 6.12 -10.6002 10
      vertex 8.19016 -9.09609 0
      vertex 6.12 -10.6002 0
    endloop
  endfacet
  facet normal 0 0 1
    outer loop
      vertex 12.24 0 10
      vertex 15.2 0 10
      vertex 14.8678 3.16026 10
    endloop
  endfacet
  facet normal 0 0 1
    outer loop
      vertex 11.9725 2.54484 10
      vertex 14.8678 3.16026 10
      vertex 13.8859 6.1824 10
    endloop
  endfacet
  facet normal 0 0 1
    outer loop
      vertex 15.2 0 10
      vertex 12.24 0 10
      vertex 14.8678 -3.16026 10
    endloop
  endfacet
  facet normal 0 0 1
    outer loop
      vertex 11.1818 4.97846 10
      vertex 13.8859 6.1824 10
      vertex 12.2971 8.93434 10
    endloop
  endfacet
  facet normal -0 0 1
    outer loop
      vertex 11.9725 -2.54484 10
      vertex 14.8678 -3.16026 10
      vertex 12.24 0 10
    endloop
  endfacet
  facet normal 0 0 1
    outer loop
      vertex 14.8678 -3.16026 10
      vertex 11.9725 -2.54484 10
      vertex 13.8859 -6.1824 10
    endloop
  endfacet
  facet normal 0 0 1
    outer loop
      vertex 14.8678 3.16026 10
      vertex 11.9725 2.54484 10
      vertex 12.24 0 10
    endloop
  endfacet
  facet normal 0 0 1
    outer loop
      vertex 13.8859 6.1824 10
      vertex 11.1818 4.97846 10
      vertex 11.9725 2.54484 10
    endloop
  endfacet
  facet normal 0 0 1
    outer loop
      vertex 9.90237 7.19449 10
      vertex 12.2971 8.93434 10
      vertex 10.1708 11.2958 10
    endloop
  endfacet
  facet normal 0 0 1
    outer loop
      vertex 12.2971 8.93434 10
      vertex 9.90237 7.19449 10
      vertex 11.1818 4.97846 10
    endloop
  endfacet
  facet normal 0 0 1
    outer loop
      vertex 10.1708 11.2958 10
      vertex 8.19016 9.09609 10
      vertex 9.90237 7.19449 10
    endloop
  endfacet
  facet normal 0 0 1
    outer loop
      vertex 7.6 13.1636 10
      vertex 8.19016 9.09609 10
      vertex 10.1708 11.2958 10
    endloop
  endfacet
  facet normal 0 0 1
    outer loop
      vertex 7.6 13.1636 10
      vertex 6.12 10.6002 10
      vertex 8.19016 9.09609 10
    endloop
  endfacet
  facet normal 0 0 1
    outer loop
      vertex 4.69706 14.4561 10
      vertex 6.12 10.6002 10
      vertex 7.6 13.1636 10
    endloop
  endfacet
  facet normal 0 0 1
    outer loop
      vertex 4.69706 14.4561 10
      vertex 3.78237 11.6409 10
      vertex 6.12 10.6002 10
    endloop
  endfacet
  facet normal 0 0 1
    outer loop
      vertex 1.58883 15.1167 10
      vertex 3.78237 11.6409 10
      vertex 4.69706 14.4561 10
    endloop
  endfacet
  facet normal 0 0 1
    outer loop
      vertex 1.58883 15.1167 10
      vertex 1.27943 12.1729 10
      vertex 3.78237 11.6409 10
    endloop
  endfacet
  facet normal 0 0 1
    outer loop
      vertex 1.58883 15.1167 10
      vertex -1.27943 12.1729 10
      vertex 1.27943 12.1729 10
    endloop
  endfacet
  facet normal -0 0 1
    outer loop
      vertex -1.58883 15.1167 10
      vertex -1.27943 12.1729 10
      vertex 1.58883 15.1167 10
    endloop
  endfacet
  facet normal 0 0 1
    outer loop
      vertex -1.58883 15.1167 10
      vertex -3.78237 11.6409 10
      vertex -1.27943 12.1729 10
    endloop
  endfacet
  facet normal -0 0 1
    outer loop
      vertex -4.69706 14.4561 10
      vertex -3.78237 11.6409 10
      vertex -1.58883 15.1167 10
    endloop
  endfacet
  facet normal 0 0 1
    outer loop
      vertex -4.69706 14.4561 10
      vertex -6.12 10.6002 10
      vertex -3.78237 11.6409 10
    endloop
  endfacet
  facet normal -0 0 1
    outer loop
      vertex -7.6 13.1636 10
      vertex -6.12 10.6002 10
      vertex -4.69706 14.4561 10
    endloop
  endfacet
  facet normal 0 0 1
    outer loop
      vertex -7.6 13.1636 10
      vertex -8.19016 9.09609 10
      vertex -6.12 10.6002 10
    endloop
  endfacet
  facet normal -0 0 1
    outer loop
      vertex -10.1708 11.2958 10
      vertex -8.19016 9.09609 10
      vertex -7.6 13.1636 10
    endloop
  endfacet
  facet normal 0 0 1
    outer loop
      vertex -8.19016 9.09609 10
      vertex -10.1708 11.2958 10
      vertex -9.90237 7.19449 10
    endloop
  endfacet
  facet normal -0 0 1
    outer loop
      vertex -12.2971 8.93434 10
      vertex -9.90237 7.19449 10
      vertex -10.1708 11.2958 10
    endloop
  endfacet
  facet normal 0 0 1
    outer loop
      vertex -9.90237 7.19449 10
      vertex -12.2971 8.93434 10
      vertex -11.1818 4.97846 10
    endloop
  endfacet
  facet normal 0 0 1
    outer loop
      vertex -11.1818 4.97846 10
      vertex -13.8859 6.1824 10
      vertex -11.9725 2.54484 10
    endloop
  endfacet
  facet normal -0 0 1
    outer loop
      vertex -13.8859 6.1824 10
      vertex -11.1818 4.97846 10
      vertex -12.2971 8.93434 10
    endloop
  endfacet
  facet normal -0 0 1
    outer loop
      vertex 11.1818 -4.97846 10
      vertex 13.8859 -6.1824 10
      vertex 11.9725 -2.54484 10
    endloop
  endfacet
  facet normal 0 0 1
    outer loop
      vertex 13.8859 -6.1824 10
      vertex 11.1818 -4.97846 10
      vertex 12.2971 -8.93434 10
    endloop
  endfacet
  facet normal -0 0 1
    outer loop
      vertex 9.90237 -7.19449 10
      vertex 12.2971 -8.93434 10
      vertex 11.1818 -4.97846 10
    endloop
  endfacet
  facet normal 0 0 1
    outer loop
      vertex 12.2971 -8.93434 10
      vertex 9.90237 -7.19449 10
      vertex 10.1708 -11.2958 10
    endloop
  endfacet
  facet normal -0 0 1
    outer loop
      vertex 8.19016 -9.09609 10
      vertex 10.1708 -11.2958 10
      vertex 9.90237 -7.19449 10
    endloop
  endfacet
  facet normal 0 0 1
    outer loop
      vertex 8.19016 -9.09609 10
      vertex 7.6 -13.1636 10
      vertex 10.1708 -11.2958 10
    endloop
  endfacet
  facet normal -0 0 1
    outer loop
      vertex 6.12 -10.6002 10
      vertex 7.6 -13.1636 10
      vertex 8.19016 -9.09609 10
    endloop
  endfacet
  facet normal 0 0 1
    outer loop
      vertex 6.12 -10.6002 10
      vertex 4.69706 -14.4561 10
      vertex 7.6 -13.1636 10
    endloop
  endfacet
  facet normal -0 0 1
    outer loop
      vertex 3.78237 -11.6409 10
      vertex 4.69706 -14.4561 10
      vertex 6.12 -10.6002 10
    endloop
  endfacet
  facet normal 0 0 1
    outer loop
      vertex 3.78237 -11.6409 10
      vertex 1.58883 -15.1167 10
      vertex 4.69706 -14.4561 10
    endloop
  endfacet
  facet normal -0 0 1
    outer loop
      vertex 1.27943 -12.1729 10
      vertex 1.58883 -15.1167 10
      vertex 3.78237 -11.6409 10
    endloop
  endfacet
  facet normal -0 0 1
    outer loop
      vertex -1.27943 -12.1729 10
      vertex 1.58883 -15.1167 10
      vertex 1.27943 -12.1729 10
    endloop
  endfacet
  facet normal 0 0 1
    outer loop
      vertex -1.27943 -12.1729 10
      vertex -1.58883 -15.1167 10
      vertex 1.58883 -15.1167 10
    endloop
  endfacet
  facet normal 0 0 1
    outer loop
      vertex -3.78237 -11.6409 10
      vertex -1.58883 -15.1167 10
      vertex -1.27943 -12.1729 10
    endloop
  endfacet
  facet normal 0 0 1
    outer loop
      vertex -3.78237 -11.6409 10
      vertex -4.69706 -14.4561 10
      vertex -1.58883 -15.1167 10
    endloop
  endfacet
  facet normal 0 0 1
    outer loop
      vertex -6.12 -10.6002 10
      vertex -4.69706 -14.4561 10
      vertex -3.78237 -11.6409 10
    endloop
  endfacet
  facet normal 0 0 1
    outer loop
      vertex -6.12 -10.6002 10
      vertex -7.6 -13.1636 10
      vertex -4.69706 -14.4561 10
    endloop
  endfacet
  facet normal 0 0 1
    outer loop
      vertex -8.19016 -9.09609 10
      vertex -7.6 -13.1636 10
      vertex -6.12 -10.6002 10
    endloop
  endfacet
  facet normal 0 0 1
    outer loop
      vertex -10.1708 -11.2958 10
      vertex -8.19016 -9.09609 10
      vertex -9.90237 -7.19449 10
    endloop
  endfacet
  facet normal 0 0 1
    outer loop
      vertex -8.19016 -9.09609 10
      vertex -10.1708 -11.2958 10
      vertex -7.6 -13.1636 10
    endloop
  endfacet
  facet normal 0 0 1
    outer loop
      vertex -12.2971 -8.93434 10
      vertex -9.90237 -7.19449 10
      vertex -11.1818 -4.97846 10
    endloop
  endfacet
  facet normal 0 0 1
    outer loop
      vertex -13.8859 -6.1824 10
      vertex -11.1818 -4.97846 10
      vertex -11.9725 -2.54484 10
    endloop
  endfacet
  facet normal 0 0 1
    outer loop
      vertex -9.90237 -7.19449 10
      vertex -12.2971 -8.93434 10
      vertex -10.1708 -11.2958 10
    endloop
  endfacet
  facet normal 0 0 1
    outer loop
      vertex -14.8678 -3.16026 10
      vertex -11.9725 -2.54484 10
      vertex -12.24 0 10
    endloop
  endfacet
  facet normal -0 0 1
    outer loop
      vertex -14.8678 3.16026 10
      vertex -11.9725 2.54484 10
      vertex -13.8859 6.1824 10
    endloop
  endfacet
  facet normal 0 0 1
    outer loop
      vertex -11.9725 2.54484 10
      vertex -14.8678 3.16026 10
      vertex -12.24 0 10
    endloop
  endfacet
  facet normal 0 0 1
    outer loop
      vertex -11.1818 -4.97846 10
      vertex -13.8859 -6.1824 10
      vertex -12.2971 -8.93434 10
    endloop
  endfacet
  facet normal 0 0 1
    outer loop
      vertex -15.2 0 10
      vertex -12.24 0 10
      vertex -14.8678 3.16026 10
    endloop
  endfacet
  facet normal 0 0 1
    outer loop
      vertex -11.9725 -2.54484 10
      vertex -14.8678 -3.16026 10
      vertex -13.8859 -6.1824 10
    endloop
  endfacet
  facet normal 0 0 1
    outer loop
      vertex -12.24 0 10
      vertex -15.2 0 10
      vertex -14.8678 -3.16026 10
    endloop
  endfacet
  facet normal -0.587798 -0.809008 0
    outer loop
      vertex 6.12 10.6002 0
      vertex 8.19016 9.09609 10
      vertex 6.12 10.6002 10
    endloop
  endfacet
  facet normal -0.587798 -0.809008 -0
    outer loop
      vertex 8.19016 9.09609 10
      vertex 6.12 10.6002 0
      vertex 8.19016 9.09609 0
    endloop
  endfacet
  facet normal 0.95106 0.309006 0
    outer loop
      vertex -11.1818 -4.97846 10
      vertex -11.9725 -2.54484 0
      vertex -11.9725 -2.54484 10
    endloop
  endfacet
  facet normal 0.95106 0.309006 0
    outer loop
      vertex -11.9725 -2.54484 0
      vertex -11.1818 -4.97846 10
      vertex -11.1818 -4.97846 0
    endloop
  endfacet
  facet normal 0.207906 -0.978149 0
    outer loop
      vertex -3.78237 11.6409 0
      vertex -1.27943 12.1729 10
      vertex -3.78237 11.6409 10
    endloop
  endfacet
  facet normal 0.207906 -0.978149 0
    outer loop
      vertex -1.27943 12.1729 10
      vertex -3.78237 11.6409 0
      vertex -1.27943 12.1729 0
    endloop
  endfacet
  facet normal -0.743145 -0.669131 0
    outer loop
      vertex 9.90237 7.19449 0
      vertex 8.19016 9.09609 10
      vertex 8.19016 9.09609 0
    endloop
  endfacet
  facet normal -0.743145 -0.669131 0
    outer loop
      vertex 8.19016 9.09609 10
      vertex 9.90237 7.19449 0
      vertex 9.90237 7.19449 10
    endloop
  endfacet
  facet normal 0.587798 0.809008 -0
    outer loop
      vertex -6.12 -10.6002 0
      vertex -8.19016 -9.09609 10
      vertex -6.12 -10.6002 10
    endloop
  endfacet
  facet normal 0.587798 0.809008 0
    outer loop
      vertex -8.19016 -9.09609 10
      vertex -6.12 -10.6002 0
      vertex -8.19016 -9.09609 0
    endloop
  endfacet
  facet normal 0 1 -0
    outer loop
      vertex 1.27943 -12.1729 0
      vertex -1.27943 -12.1729 10
      vertex 1.27943 -12.1729 10
    endloop
  endfacet
  facet normal 0 1 0
    outer loop
      vertex -1.27943 -12.1729 10
      vertex 1.27943 -12.1729 0
      vertex -1.27943 -12.1729 0
    endloop
  endfacet
  facet normal 0.994521 -0.104539 0
    outer loop
      vertex -12.24 0 10
      vertex -11.9725 2.54484 0
      vertex -11.9725 2.54484 10
    endloop
  endfacet
  facet normal 0.994521 -0.104539 0
    outer loop
      vertex -11.9725 2.54484 0
      vertex -12.24 0 10
      vertex -12.24 0 0
    endloop
  endfacet
  facet normal -0.866025 0.500001 0
    outer loop
      vertex 9.90237 -7.19449 0
      vertex 11.1818 -4.97846 10
      vertex 11.1818 -4.97846 0
    endloop
  endfacet
  facet normal -0.866025 0.500001 0
    outer loop
      vertex 11.1818 -4.97846 10
      vertex 9.90237 -7.19449 0
      vertex 9.90237 -7.19449 10
    endloop
  endfacet
  facet normal 0.587798 -0.809008 0
    outer loop
      vertex -8.19016 9.09609 0
      vertex -6.12 10.6002 10
      vertex -8.19016 9.09609 10
    endloop
  endfacet
  facet normal 0.587798 -0.809008 0
    outer loop
      vertex -6.12 10.6002 10
      vertex -8.19016 9.09609 0
      vertex -6.12 10.6002 0
    endloop
  endfacet
  facet normal -0.207906 0.978149 0
    outer loop
      vertex 3.78237 -11.6409 0
      vertex 1.27943 -12.1729 10
      vertex 3.78237 -11.6409 10
    endloop
  endfacet
  facet normal -0.207906 0.978149 0
    outer loop
      vertex 1.27943 -12.1729 10
      vertex 3.78237 -11.6409 0
      vertex 1.27943 -12.1729 0
    endloop
  endfacet
  facet normal 0.743145 0.669131 0
    outer loop
      vertex -8.19016 -9.09609 10
      vertex -9.90237 -7.19449 0
      vertex -9.90237 -7.19449 10
    endloop
  endfacet
  facet normal 0.743145 0.669131 0
    outer loop
      vertex -9.90237 -7.19449 0
      vertex -8.19016 -9.09609 10
      vertex -8.19016 -9.09609 0
    endloop
  endfacet
  facet normal 0.95106 -0.309006 0
    outer loop
      vertex -11.9725 2.54484 10
      vertex -11.1818 4.97846 0
      vertex -11.1818 4.97846 10
    endloop
  endfacet
  facet normal 0.95106 -0.309006 0
    outer loop
      vertex -11.1818 4.97846 0
      vertex -11.9725 2.54484 10
      vertex -11.9725 2.54484 0
    endloop
  endfacet
  facet normal 0.866025 0.500001 0
    outer loop
      vertex -9.90237 -7.19449 10
      vertex -11.1818 -4.97846 0
      vertex -11.1818 -4.97846 10
    endloop
  endfacet
  facet normal 0.866025 0.500001 0
    outer loop
      vertex -11.1818 -4.97846 0
      vertex -9.90237 -7.19449 10
      vertex -9.90237 -7.19449 0
    endloop
  endfacet
  facet normal -0.406711 -0.913557 0
    outer loop
      vertex 3.78237 11.6409 0
      vertex 6.12 10.6002 10
      vertex 3.78237 11.6409 10
    endloop
  endfacet
  facet normal -0.406711 -0.913557 -0
    outer loop
      vertex 6.12 10.6002 10
      vertex 3.78237 11.6409 0
      vertex 6.12 10.6002 0
    endloop
  endfacet
  facet normal -0.95106 0.309006 0
    outer loop
      vertex 11.1818 -4.97846 0
      vertex 11.9725 -2.54484 10
      vertex 11.9725 -2.54484 0
    endloop
  endfacet
  facet normal -0.95106 0.309006 0
    outer loop
      vertex 11.9725 -2.54484 10
      vertex 11.1818 -4.97846 0
      vertex 11.1818 -4.97846 10
    endloop
  endfacet
  facet normal -0.994521 0.104539 0
    outer loop
      vertex 11.9725 -2.54484 0
      vertex 12.24 0 10
      vertex 12.24 0 0
    endloop
  endfacet
  facet normal -0.994521 0.104539 0
    outer loop
      vertex 12.24 0 10
      vertex 11.9725 -2.54484 0
      vertex 11.9725 -2.54484 10
    endloop
  endfacet
  facet normal 0.207906 0.978149 -0
    outer loop
      vertex -1.27943 -12.1729 0
      vertex -3.78237 -11.6409 10
      vertex -1.27943 -12.1729 10
    endloop
  endfacet
  facet normal 0.207906 0.978149 0
    outer loop
      vertex -3.78237 -11.6409 10
      vertex -1.27943 -12.1729 0
      vertex -3.78237 -11.6409 0
    endloop
  endfacet
  facet normal 0.406711 0.913557 -0
    outer loop
      vertex -3.78237 -11.6409 0
      vertex -6.12 -10.6002 10
      vertex -3.78237 -11.6409 10
    endloop
  endfacet
  facet normal 0.406711 0.913557 0
    outer loop
      vertex -6.12 -10.6002 10
      vertex -3.78237 -11.6409 0
      vertex -6.12 -10.6002 0
    endloop
  endfacet
  facet normal 0.866025 -0.500001 0
    outer loop
      vertex -11.1818 4.97846 10
      vertex -9.90237 7.19449 0
      vertex -9.90237 7.19449 10
    endloop
  endfacet
  facet normal 0.866025 -0.500001 0
    outer loop
      vertex -9.90237 7.19449 0
      vertex -11.1818 4.97846 10
      vertex -11.1818 4.97846 0
    endloop
  endfacet
  facet normal 0 -1 0
    outer loop
      vertex -1.27943 12.1729 0
      vertex 1.27943 12.1729 10
      vertex -1.27943 12.1729 10
    endloop
  endfacet
  facet normal 0 -1 -0
    outer loop
      vertex 1.27943 12.1729 10
      vertex -1.27943 12.1729 0
      vertex 1.27943 12.1729 0
    endloop
  endfacet
  facet normal 0.406711 -0.913557 0
    outer loop
      vertex -6.12 10.6002 0
      vertex -3.78237 11.6409 10
      vertex -6.12 10.6002 10
    endloop
  endfacet
  facet normal 0.406711 -0.913557 0
    outer loop
      vertex -3.78237 11.6409 10
      vertex -6.12 10.6002 0
      vertex -3.78237 11.6409 0
    endloop
  endfacet
  facet normal 0.994521 0.104539 0
    outer loop
      vertex -11.9725 -2.54484 10
      vertex -12.24 0 0
      vertex -12.24 0 10
    endloop
  endfacet
  facet normal 0.994521 0.104539 0
    outer loop
      vertex -12.24 0 0
      vertex -11.9725 -2.54484 10
      vertex -11.9725 -2.54484 0
    endloop
  endfacet
  facet normal 0.743145 -0.669131 0
    outer loop
      vertex -9.90237 7.19449 10
      vertex -8.19016 9.09609 0
      vertex -8.19016 9.09609 10
    endloop
  endfacet
  facet normal 0.743145 -0.669131 0
    outer loop
      vertex -8.19016 9.09609 0
      vertex -9.90237 7.19449 10
      vertex -9.90237 7.19449 0
    endloop
  endfacet
  facet normal -0.207906 -0.978149 0
    outer loop
      vertex 1.27943 12.1729 0
      vertex 3.78237 11.6409 10
      vertex 1.27943 12.1729 10
    endloop
  endfacet
  facet normal -0.207906 -0.978149 -0
    outer loop
      vertex 3.78237 11.6409 10
      vertex 1.27943 12.1729 0
      vertex 3.78237 11.6409 0
    endloop
  endfacet
  facet normal -0.743145 0.669131 0
    outer loop
      vertex 8.19016 -9.09609 0
      vertex 9.90237 -7.19449 10
      vertex 9.90237 -7.19449 0
    endloop
  endfacet
  facet normal -0.743145 0.669131 0
    outer loop
      vertex 9.90237 -7.19449 10
      vertex 8.19016 -9.09609 0
      vertex 8.19016 -9.09609 10
    endloop
  endfacet
  facet normal -0.406711 0.913557 0
    outer loop
      vertex 6.12 -10.6002 0
      vertex 3.78237 -11.6409 10
      vertex 6.12 -10.6002 10
    endloop
  endfacet
  facet normal -0.406711 0.913557 0
    outer loop
      vertex 3.78237 -11.6409 10
      vertex 6.12 -10.6002 0
      vertex 3.78237 -11.6409 0
    endloop
  endfacet
  facet normal 0.207889 0.978152 -0
    outer loop
      vertex -1.58883 -15.1167 10
      vertex -4.69706 -14.4561 27
      vertex -1.58883 -15.1167 27
    endloop
  endfacet
  facet normal 0.207889 0.978152 0
    outer loop
      vertex -4.69706 -14.4561 27
      vertex -1.58883 -15.1167 10
      vertex -4.69706 -14.4561 10
    endloop
  endfacet
  facet normal -0.951061 -0.309002 0
    outer loop
      vertex 14.8678 3.16026 10
      vertex 13.8859 6.1824 27
      vertex 13.8859 6.1824 10
    endloop
  endfacet
  facet normal -0.951061 -0.309002 0
    outer loop
      vertex 13.8859 6.1824 27
      vertex 14.8678 3.16026 10
      vertex 14.8678 3.16026 27
    endloop
  endfacet
  facet normal -0.99452 -0.104542 0
    outer loop
      vertex 15.2 0 10
      vertex 14.8678 3.16026 27
      vertex 14.8678 3.16026 10
    endloop
  endfacet
  facet normal -0.99452 -0.104542 0
    outer loop
      vertex 14.8678 3.16026 27
      vertex 15.2 0 10
      vertex 15.2 0 27
    endloop
  endfacet
  facet normal -0.86603 -0.499992 0
    outer loop
      vertex 13.8859 6.1824 10
      vertex 12.2971 8.93434 27
      vertex 12.2971 8.93434 10
    endloop
  endfacet
  facet normal -0.86603 -0.499992 0
    outer loop
      vertex 12.2971 8.93434 27
      vertex 13.8859 6.1824 10
      vertex 13.8859 6.1824 27
    endloop
  endfacet
  facet normal -0.99452 0.104542 0
    outer loop
      vertex 14.8678 -3.16026 10
      vertex 15.2 0 27
      vertex 15.2 0 10
    endloop
  endfacet
  facet normal -0.99452 0.104542 0
    outer loop
      vertex 15.2 0 27
      vertex 14.8678 -3.16026 10
      vertex 14.8678 -3.16026 27
    endloop
  endfacet
  facet normal -0.74314 -0.669136 0
    outer loop
      vertex 12.2971 8.93434 10
      vertex 10.1708 11.2958 27
      vertex 10.1708 11.2958 10
    endloop
  endfacet
  facet normal -0.74314 -0.669136 0
    outer loop
      vertex 10.1708 11.2958 27
      vertex 12.2971 8.93434 10
      vertex 12.2971 8.93434 27
    endloop
  endfacet
  facet normal 0.951061 0.309002 0
    outer loop
      vertex -13.8859 -6.1824 27
      vertex -14.8678 -3.16026 10
      vertex -14.8678 -3.16026 27
    endloop
  endfacet
  facet normal 0.951061 0.309002 0
    outer loop
      vertex -14.8678 -3.16026 10
      vertex -13.8859 -6.1824 27
      vertex -13.8859 -6.1824 10
    endloop
  endfacet
  facet normal 0.74314 -0.669136 0
    outer loop
      vertex -12.2971 8.93434 27
      vertex -10.1708 11.2958 10
      vertex -10.1708 11.2958 27
    endloop
  endfacet
  facet normal 0.74314 -0.669136 0
    outer loop
      vertex -10.1708 11.2958 10
      vertex -12.2971 8.93434 27
      vertex -12.2971 8.93434 10
    endloop
  endfacet
  facet normal 0.951061 -0.309002 0
    outer loop
      vertex -14.8678 3.16026 27
      vertex -13.8859 6.1824 10
      vertex -13.8859 6.1824 27
    endloop
  endfacet
  facet normal 0.951061 -0.309002 0
    outer loop
      vertex -13.8859 6.1824 10
      vertex -14.8678 3.16026 27
      vertex -14.8678 3.16026 10
    endloop
  endfacet
  facet normal -0.587786 0.809016 0
    outer loop
      vertex 10.1708 -11.2958 10
      vertex 7.6 -13.1636 27
      vertex 10.1708 -11.2958 27
    endloop
  endfacet
  facet normal -0.587786 0.809016 0
    outer loop
      vertex 7.6 -13.1636 27
      vertex 10.1708 -11.2958 10
      vertex 7.6 -13.1636 10
    endloop
  endfacet
  facet normal 0.587786 0.809016 -0
    outer loop
      vertex -7.6 -13.1636 10
      vertex -10.1708 -11.2958 27
      vertex -7.6 -13.1636 27
    endloop
  endfacet
  facet normal 0.587786 0.809016 0
    outer loop
      vertex -10.1708 -11.2958 27
      vertex -7.6 -13.1636 10
      vertex -10.1708 -11.2958 10
    endloop
  endfacet
  facet normal 0.587786 -0.809016 0
    outer loop
      vertex -10.1708 11.2958 10
      vertex -7.6 13.1636 27
      vertex -10.1708 11.2958 27
    endloop
  endfacet
  facet normal 0.587786 -0.809016 0
    outer loop
      vertex -7.6 13.1636 27
      vertex -10.1708 11.2958 10
      vertex -7.6 13.1636 10
    endloop
  endfacet
  facet normal 0.86603 -0.499992 0
    outer loop
      vertex -13.8859 6.1824 27
      vertex -12.2971 8.93434 10
      vertex -12.2971 8.93434 27
    endloop
  endfacet
  facet normal 0.86603 -0.499992 0
    outer loop
      vertex -12.2971 8.93434 10
      vertex -13.8859 6.1824 27
      vertex -13.8859 6.1824 10
    endloop
  endfacet
  facet normal 0.406744 -0.913542 0
    outer loop
      vertex -7.6 13.1636 10
      vertex -4.69706 14.4561 27
      vertex -7.6 13.1636 27
    endloop
  endfacet
  facet normal 0.406744 -0.913542 0
    outer loop
      vertex -4.69706 14.4561 27
      vertex -7.6 13.1636 10
      vertex -4.69706 14.4561 10
    endloop
  endfacet
  facet normal 0.207889 -0.978152 0
    outer loop
      vertex -4.69706 14.4561 10
      vertex -1.58883 15.1167 27
      vertex -4.69706 14.4561 27
    endloop
  endfacet
  facet normal 0.207889 -0.978152 0
    outer loop
      vertex -1.58883 15.1167 27
      vertex -4.69706 14.4561 10
      vertex -1.58883 15.1167 10
    endloop
  endfacet
  facet normal -0.86603 0.499992 0
    outer loop
      vertex 12.2971 -8.93434 10
      vertex 13.8859 -6.1824 27
      vertex 13.8859 -6.1824 10
    endloop
  endfacet
  facet normal -0.86603 0.499992 0
    outer loop
      vertex 13.8859 -6.1824 27
      vertex 12.2971 -8.93434 10
      vertex 12.2971 -8.93434 27
    endloop
  endfacet
  facet normal -0.74314 0.669136 0
    outer loop
      vertex 10.1708 -11.2958 10
      vertex 12.2971 -8.93434 27
      vertex 12.2971 -8.93434 10
    endloop
  endfacet
  facet normal -0.74314 0.669136 0
    outer loop
      vertex 12.2971 -8.93434 27
      vertex 10.1708 -11.2958 10
      vertex 10.1708 -11.2958 27
    endloop
  endfacet
  facet normal -0.207889 0.978152 0
    outer loop
      vertex 4.69706 -14.4561 10
      vertex 1.58883 -15.1167 27
      vertex 4.69706 -14.4561 27
    endloop
  endfacet
  facet normal -0.207889 0.978152 0
    outer loop
      vertex 1.58883 -15.1167 27
      vertex 4.69706 -14.4561 10
      vertex 1.58883 -15.1167 10
    endloop
  endfacet
  facet normal 0 -1 0
    outer loop
      vertex -1.58883 15.1167 10
      vertex 1.58883 15.1167 27
      vertex -1.58883 15.1167 27
    endloop
  endfacet
  facet normal 0 -1 -0
    outer loop
      vertex 1.58883 15.1167 27
      vertex -1.58883 15.1167 10
      vertex 1.58883 15.1167 10
    endloop
  endfacet
  facet normal -0.951061 0.309002 0
    outer loop
      vertex 13.8859 -6.1824 10
      vertex 14.8678 -3.16026 27
      vertex 14.8678 -3.16026 10
    endloop
  endfacet
  facet normal -0.951061 0.309002 0
    outer loop
      vertex 14.8678 -3.16026 27
      vertex 13.8859 -6.1824 10
      vertex 13.8859 -6.1824 27
    endloop
  endfacet
  facet normal -0.587786 -0.809016 0
    outer loop
      vertex 7.6 13.1636 10
      vertex 10.1708 11.2958 27
      vertex 7.6 13.1636 27
    endloop
  endfacet
  facet normal -0.587786 -0.809016 -0
    outer loop
      vertex 10.1708 11.2958 27
      vertex 7.6 13.1636 10
      vertex 10.1708 11.2958 10
    endloop
  endfacet
  facet normal 0.99452 -0.104542 0
    outer loop
      vertex -15.2 0 27
      vertex -14.8678 3.16026 10
      vertex -14.8678 3.16026 27
    endloop
  endfacet
  facet normal 0.99452 -0.104542 0
    outer loop
      vertex -14.8678 3.16026 10
      vertex -15.2 0 27
      vertex -15.2 0 10
    endloop
  endfacet
  facet normal 0.86603 0.499992 0
    outer loop
      vertex -12.2971 -8.93434 27
      vertex -13.8859 -6.1824 10
      vertex -13.8859 -6.1824 27
    endloop
  endfacet
  facet normal 0.86603 0.499992 0
    outer loop
      vertex -13.8859 -6.1824 10
      vertex -12.2971 -8.93434 27
      vertex -12.2971 -8.93434 10
    endloop
  endfacet
  facet normal -0.406744 -0.913542 0
    outer loop
      vertex 4.69706 14.4561 10
      vertex 7.6 13.1636 27
      vertex 4.69706 14.4561 27
    endloop
  endfacet
  facet normal -0.406744 -0.913542 -0
    outer loop
      vertex 7.6 13.1636 27
      vertex 4.69706 14.4561 10
      vertex 7.6 13.1636 10
    endloop
  endfacet
  facet normal 0 1 -0
    outer loop
      vertex 1.58883 -15.1167 10
      vertex -1.58883 -15.1167 27
      vertex 1.58883 -15.1167 27
    endloop
  endfacet
  facet normal 0 1 0
    outer loop
      vertex -1.58883 -15.1167 27
      vertex 1.58883 -15.1167 10
      vertex -1.58883 -15.1167 10
    endloop
  endfacet
  facet normal 0.99452 0.104542 0
    outer loop
      vertex -14.8678 -3.16026 27
      vertex -15.2 0 10
      vertex -15.2 0 27
    endloop
  endfacet
  facet normal 0.99452 0.104542 0
    outer loop
      vertex -15.2 0 10
      vertex -14.8678 -3.16026 27
      vertex -14.8678 -3.16026 10
    endloop
  endfacet
  facet normal -0.406744 0.913542 0
    outer loop
      vertex 7.6 -13.1636 10
      vertex 4.69706 -14.4561 27
      vertex 7.6 -13.1636 27
    endloop
  endfacet
  facet normal -0.406744 0.913542 0
    outer loop
      vertex 4.69706 -14.4561 27
      vertex 7.6 -13.1636 10
      vertex 4.69706 -14.4561 10
    endloop
  endfacet
  facet normal 0.74314 0.669136 0
    outer loop
      vertex -10.1708 -11.2958 27
      vertex -12.2971 -8.93434 10
      vertex -12.2971 -8.93434 27
    endloop
  endfacet
  facet normal 0.74314 0.669136 0
    outer loop
      vertex -12.2971 -8.93434 10
      vertex -10.1708 -11.2958 27
      vertex -10.1708 -11.2958 10
    endloop
  endfacet
  facet normal -0.207889 -0.978152 0
    outer loop
      vertex 1.58883 15.1167 10
      vertex 4.69706 14.4561 27
      vertex 1.58883 15.1167 27
    endloop
  endfacet
  facet normal -0.207889 -0.978152 -0
    outer loop
      vertex 4.69706 14.4561 27
      vertex 1.58883 15.1167 10
      vertex 4.69706 14.4561 10
    endloop
  endfacet
  facet normal 0.406744 0.913542 -0
    outer loop
      vertex -4.69706 -14.4561 10
      vertex -7.6 -13.1636 27
      vertex -4.69706 -14.4561 27
    endloop
  endfacet
  facet normal 0.406744 0.913542 0
    outer loop
      vertex -7.6 -13.1636 27
      vertex -4.69706 -14.4561 10
      vertex -7.6 -13.1636 10
    endloop
  endfacet
  facet normal 0 0 1
    outer loop
      vertex 15.6504 3.32659 28
      vertex 15.6504 -3.32659 28
      vertex 16 0 28
    endloop
  endfacet
  facet normal 0 0 1
    outer loop
      vertex 14.6167 6.50779 28
      vertex 15.6504 -3.32659 28
      vertex 15.6504 3.32659 28
    endloop
  endfacet
  facet normal 0 0 1
    outer loop
      vertex 14.6167 6.50779 28
      vertex 14.6167 -6.50779 28
      vertex 15.6504 -3.32659 28
    endloop
  endfacet
  facet normal 0 0 1
    outer loop
      vertex 12.9443 9.40456 28
      vertex 14.6167 -6.50779 28
      vertex 14.6167 6.50779 28
    endloop
  endfacet
  facet normal 0 0 1
    outer loop
      vertex 12.9443 9.40456 28
      vertex 12.9443 -9.40456 28
      vertex 14.6167 -6.50779 28
    endloop
  endfacet
  facet normal 0 0 1
    outer loop
      vertex 10.7061 11.8903 28
      vertex 12.9443 -9.40456 28
      vertex 12.9443 9.40456 28
    endloop
  endfacet
  facet normal 0 0 1
    outer loop
      vertex 10.7061 11.8903 28
      vertex 10.7061 -11.8903 28
      vertex 12.9443 -9.40456 28
    endloop
  endfacet
  facet normal 0 0 1
    outer loop
      vertex 8 13.8564 28
      vertex 10.7061 -11.8903 28
      vertex 10.7061 11.8903 28
    endloop
  endfacet
  facet normal 0 0 1
    outer loop
      vertex 8 13.8564 28
      vertex 8 -13.8564 28
      vertex 10.7061 -11.8903 28
    endloop
  endfacet
  facet normal 0 0 1
    outer loop
      vertex 4.94427 15.2169 28
      vertex 8 -13.8564 28
      vertex 8 13.8564 28
    endloop
  endfacet
  facet normal 0 0 1
    outer loop
      vertex 4.94427 15.2169 28
      vertex 4.94427 -15.2169 28
      vertex 8 -13.8564 28
    endloop
  endfacet
  facet normal 0 0 1
    outer loop
      vertex 1.67245 15.9123 28
      vertex 4.94427 -15.2169 28
      vertex 4.94427 15.2169 28
    endloop
  endfacet
  facet normal 0 0 1
    outer loop
      vertex 1.67245 15.9123 28
      vertex 1.67245 -15.9123 28
      vertex 4.94427 -15.2169 28
    endloop
  endfacet
  facet normal -0 0 1
    outer loop
      vertex -1.67245 15.9123 28
      vertex 1.67245 -15.9123 28
      vertex 1.67245 15.9123 28
    endloop
  endfacet
  facet normal 0 0 1
    outer loop
      vertex -1.67245 15.9123 28
      vertex -1.67245 -15.9123 28
      vertex 1.67245 -15.9123 28
    endloop
  endfacet
  facet normal -0 0 1
    outer loop
      vertex -4.94427 15.2169 28
      vertex -1.67245 -15.9123 28
      vertex -1.67245 15.9123 28
    endloop
  endfacet
  facet normal 0 0 1
    outer loop
      vertex -4.94427 15.2169 28
      vertex -4.94427 -15.2169 28
      vertex -1.67245 -15.9123 28
    endloop
  endfacet
  facet normal -0 0 1
    outer loop
      vertex -8 13.8564 28
      vertex -4.94427 -15.2169 28
      vertex -4.94427 15.2169 28
    endloop
  endfacet
  facet normal 0 0 1
    outer loop
      vertex -8 13.8564 28
      vertex -8 -13.8564 28
      vertex -4.94427 -15.2169 28
    endloop
  endfacet
  facet normal -0 0 1
    outer loop
      vertex -10.7061 11.8903 28
      vertex -8 -13.8564 28
      vertex -8 13.8564 28
    endloop
  endfacet
  facet normal 0 0 1
    outer loop
      vertex -10.7061 11.8903 28
      vertex -10.7061 -11.8903 28
      vertex -8 -13.8564 28
    endloop
  endfacet
  facet normal -0 0 1
    outer loop
      vertex -12.9443 9.40456 28
      vertex -10.7061 -11.8903 28
      vertex -10.7061 11.8903 28
    endloop
  endfacet
  facet normal 0 0 1
    outer loop
      vertex -12.9443 9.40456 28
      vertex -12.9443 -9.40456 28
      vertex -10.7061 -11.8903 28
    endloop
  endfacet
  facet normal -0 0 1
    outer loop
      vertex -14.6167 6.50779 28
      vertex -12.9443 -9.40456 28
      vertex -12.9443 9.40456 28
    endloop
  endfacet
  facet normal 0 0 1
    outer loop
      vertex -14.6167 6.50779 28
      vertex -14.6167 -6.50779 28
      vertex -12.9443 -9.40456 28
    endloop
  endfacet
  facet normal -0 0 1
    outer loop
      vertex -15.6504 3.32659 28
      vertex -14.6167 -6.50779 28
      vertex -14.6167 6.50779 28
    endloop
  endfacet
  facet normal 0 0 1
    outer loop
      vertex -15.6504 3.32659 28
      vertex -15.6504 -3.32659 28
      vertex -14.6167 -6.50779 28
    endloop
  endfacet
  facet normal 0 -0 1
    outer loop
      vertex -15.6504 -3.32659 28
      vertex -15.6504 3.32659 28
      vertex -16 0 28
    endloop
  endfacet
endsolid OpenSCAD_Model
