solid OpenSCAD_Model
  facet normal 1 -0 0
    outer loop
      vertex 35 0 12
      vertex 35 35 0
      vertex 35 35 12
    endloop
  endfacet
  facet normal 1 0 0
    outer loop
      vertex 35 35 0
      vertex 35 0 12
      vertex 35 0 0
    endloop
  endfacet
  facet normal 0 0 1
    outer loop
      vertex 35 35 12
      vertex 25.05 25.05 12
      vertex 35 0 12
    endloop
  endfacet
  facet normal 0 0 1
    outer loop
      vertex 35 35 12
      vertex 9.95 25.05 12
      vertex 25.05 25.05 12
    endloop
  endfacet
  facet normal 0 0 1
    outer loop
      vertex 9.95 25.05 12
      vertex 0 35 12
      vertex 9.95 9.95 12
    endloop
  endfacet
  facet normal -0 0 1
    outer loop
      vertex 0 35 12
      vertex 9.95 25.05 12
      vertex 35 35 12
    endloop
  endfacet
  facet normal -0 0 1
    outer loop
      vertex 25.05 9.95 12
      vertex 35 0 12
      vertex 25.05 25.05 12
    endloop
  endfacet
  facet normal -0 0 1
    outer loop
      vertex 9.95 9.95 12
      vertex 35 0 12
      vertex 25.05 9.95 12
    endloop
  endfacet
  facet normal 0 0 1
    outer loop
      vertex 9.95 9.95 12
      vertex 0 0 12
      vertex 35 0 12
    endloop
  endfacet
  facet normal 0 0 1
    outer loop
      vertex 0 0 12
      vertex 9.95 9.95 12
      vertex 0 35 12
    endloop
  endfacet
  facet normal 0 0 -1
    outer loop
      vertex 0 0 0
      vertex 35 35 0
      vertex 35 0 0
    endloop
  endfacet
  facet normal -0 0 -1
    outer loop
      vertex 35 35 0
      vertex 0 0 0
      vertex 0 35 0
    endloop
  endfacet
  facet normal -1 0 0
    outer loop
      vertex 0 0 0
      vertex 0 35 12
      vertex 0 35 0
    endloop
  endfacet
  facet normal -1 -0 0
    outer loop
      vertex 0 35 12
      vertex 0 0 0
      vertex 0 0 12
    endloop
  endfacet
  facet normal 0 1 -0
    outer loop
      vertex 35 35 0
      vertex 0 35 12
      vertex 35 35 12
    endloop
  endfacet
  facet normal 0 1 0
    outer loop
      vertex 0 35 12
      vertex 35 35 0
      vertex 0 35 0
    endloop
  endfacet
  facet normal 0 -1 0
    outer loop
      vertex 0 0 0
      vertex 35 0 12
      vertex 0 0 12
    endloop
  endfacet
  facet normal 0 -1 -0
    outer loop
      vertex 35 0 12
      vertex 0 0 0
      vertex 35 0 0
    endloop
  endfacet
  facet normal -1 0 0
    outer loop
      vertex 25.05 9.95 4
      vertex 25.05 25.05 12
      vertex 25.05 25.05 4
    endloop
  endfacet
  facet normal -1 -0 0
    outer loop
      vertex 25.05 25.05 12
      vertex 25.05 9.95 4
      vertex 25.05 9.95 12
    endloop
  endfacet
  facet normal -0 0 1
    outer loop
      vertex 9.95 25.05 4
      vertex 25.05 9.95 4
      vertex 25.05 25.05 4
    endloop
  endfacet
  facet normal 0 0 1
    outer loop
      vertex 25.05 9.95 4
      vertex 9.95 25.05 4
      vertex 9.95 9.95 4
    endloop
  endfacet
  facet normal 1 -0 0
    outer loop
      vertex 9.95 9.95 12
      vertex 9.95 25.05 4
      vertex 9.95 25.05 12
    endloop
  endfacet
  facet normal 1 0 0
    outer loop
      vertex 9.95 25.05 4
      vertex 9.95 9.95 12
      vertex 9.95 9.95 4
    endloop
  endfacet
  facet normal 0 -1 0
    outer loop
      vertex 9.95 25.05 4
      vertex 25.05 25.05 12
      vertex 9.95 25.05 12
    endloop
  endfacet
  facet normal 0 -1 -0
    outer loop
      vertex 25.05 25.05 12
      vertex 9.95 25.05 4
      vertex 25.05 25.05 4
    endloop
  endfacet
  facet normal 0 1 -0
    outer loop
      vertex 25.05 9.95 4
      vertex 9.95 9.95 12
      vertex 25.05 9.95 12
    endloop
  endfacet
  facet normal 0 1 0
    outer loop
      vertex 9.95 9.95 12
      vertex 25.05 9.95 4
      vertex 9.95 9.95 4
    endloop
  endfacet
endsolid OpenSCAD_Model
